# xmcd
#
# Track frame offsets:
#	150
#	13653
#	24168
#	38637
#	56230
#	70079
#	83153
#	94842
#	108994
#	120826
#	130315
#	147667
#	162285
#	177850
#	191927
#	202527
#	215657
#	242064
#
# Disc length: 3242 seconds
#
# Revision: 1
# Processed by: cddbd v1.5.2PL0 Copyright (c) Steve Scherf et al.
# Submitted via: audiograbber 1.83.01
#
DISCID=f50ca812
DTITLE=Chartbuster 5007-01 - 70's Country
DYEAR=1900
DGENRE=Country
TTITLE0=Merle Haggard - The Fightin' Side Of Me
TTITLE1=Charley Pride - Is Anybody Going To San Antone
TTITLE2=Loreta Lynn - Coal Miners Daughter
TTITLE3=Marty Robbins - My Woman, My Woman, My Wife
TTITLE4=George Jones - The Grand Tour
TTITLE5=Sammi Smith - Help Me Make It Through The Night
TTITLE6=Willie Nelson - Blue Eyes Crying In The Rain
TTITLE7=Charlie Rich - Behind Closed Doors
TTITLE8=Crystal Gayle - Don't It Make My Brown Eyes Blue
TTITLE9=Charley Pride - Kiss An Angel Good Morning
TTITLE10=Johnny Cash - Sunday Morning Coming Down
TTITLE11=Lynn Anderson - Rose Garden
TTITLE12=Waylon Jennings - A Good Hearted Woman
TTITLE13=Conway Twitty - Linda On My Mind
TTITLE14=Dottie West - Country Sunshine
TTITLE15=Charlie Rich - The Most Beautiful Girl
TTITLE16=Bellamy Brothers - Let Your Love Flow
TTITLE17=Data - Data
EXTD=
EXTT0=
EXTT1=
EXTT2=
EXTT3=
EXTT4=
EXTT5=
EXTT6=
EXTT7=
EXTT8=
EXTT9=
EXTT10=
EXTT11=
EXTT12=
EXTT13=
EXTT14=
EXTT15=
EXTT16=
EXTT17=
PLAYORDER=
